<mxfile host="app.diagrams.net" modified="2024-06-09T14:25:50.811Z" agent="Mozilla/5.0 (Macintosh; Intel Mac OS X 10_15_7) AppleWebKit/537.36 (KHTML, like Gecko) Chrome/125.0.0.0 Safari/537.36" etag="gRo4EtFCGM5n_xF-mg94" version="24.2.2" type="github">
  <diagram name="Page-1" id="tvWe48YeM1nYAS8sAepx">
    <mxGraphModel dx="4097" dy="1974" grid="1" gridSize="10" guides="1" tooltips="1" connect="1" arrows="1" fold="1" page="1" pageScale="1" pageWidth="850" pageHeight="1100" math="0" shadow="0">
      <root>
        <mxCell id="0" />
        <mxCell id="1" parent="0" />
        <mxCell id="CKfuxH8W6VXwlwDnfsAk-1" value="" style="rounded=0;whiteSpace=wrap;html=1;imageWidth=3165;imageHeight=26;arcSize=12;fillColor=none;" vertex="1" parent="1">
          <mxGeometry x="40" y="700" width="3165" height="2499" as="geometry" />
        </mxCell>
      </root>
    </mxGraphModel>
  </diagram>
</mxfile>
